<?xml version="1.0" encoding="UTF-8" standalone="no"?>
<!DOCTYPE svg PUBLIC "-//W3C//DTD SVG 1.1//EN"
 "http://www.w3.org/Graphics/SVG/1.1/DTD/svg11.dtd">
<!-- Generated by graphviz version 2.43.0 (0)
 -->
<!-- Title: %3 Pages: 1 -->
<svg width="334pt" height="260pt"
 viewBox="0.00 0.00 334.00 260.00" xmlns="http://www.w3.org/2000/svg" xmlns:xlink="http://www.w3.org/1999/xlink">
<g id="graph0" class="graph" transform="scale(1 1) rotate(0) translate(4 256)">
<title>%3</title>
<polygon fill="white" stroke="transparent" points="-4,4 -4,-256 330,-256 330,4 -4,4"/>
<!-- root -->
<g id="node1" class="node">
<title>root</title>
<polygon fill="#e9f2fa" stroke="#5f92b6" points="190,-252 136,-252 136,-216 190,-216 190,-252"/>
<text text-anchor="middle" x="163" y="-230.3" font-family="Times,serif" font-size="14.00" fill="#434343">C?</text>
</g>
<!-- root_1 -->
<g id="node2" class="node">
<title>root_1</title>
<polygon fill="#e9f2fa" stroke="#5f92b6" points="148,-180 94,-180 94,-144 148,-144 148,-180"/>
<text text-anchor="middle" x="121" y="-158.3" font-family="Times,serif" font-size="14.00" fill="#434343">A?</text>
</g>
<!-- root&#45;&gt;root_1 -->
<g id="edge9" class="edge">
<title>root&#45;&gt;root_1</title>
<path fill="none" stroke="black" d="M152.62,-215.7C147.74,-207.56 141.81,-197.69 136.42,-188.7"/>
<polygon fill="black" stroke="black" points="139.41,-186.88 131.26,-180.1 133.41,-190.48 139.41,-186.88"/>
</g>
<!-- root_0 -->
<g id="node7" class="node">
<title>root_0</title>
<polygon fill="#fae8e8" stroke="#b55e5e" points="232,-180 178,-180 178,-144 232,-144 232,-180"/>
<text text-anchor="middle" x="205" y="-158.3" font-family="Times,serif" font-size="14.00" fill="#434343">do(C)?</text>
</g>
<!-- root&#45;&gt;root_0 -->
<g id="edge10" class="edge">
<title>root&#45;&gt;root_0</title>
<path fill="none" stroke="black" d="M173.38,-215.7C178.26,-207.56 184.19,-197.69 189.58,-188.7"/>
<polygon fill="black" stroke="black" points="192.59,-190.48 194.74,-180.1 186.59,-186.88 192.59,-190.48"/>
</g>
<!-- root_1_1 -->
<g id="node3" class="node">
<title>root_1_1</title>
<polygon fill="#e9f2fa" stroke="#5f92b6" points="76,-108 10,-108 10,-72 76,-72 76,-108"/>
<text text-anchor="middle" x="43" y="-86.3" font-family="Times,serif" font-size="14.00" fill="#434343">B = True</text>
</g>
<!-- root_1&#45;&gt;root_1_1 -->
<g id="edge3" class="edge">
<title>root_1&#45;&gt;root_1_1</title>
<path fill="none" stroke="black" d="M101.72,-143.7C92.08,-135.05 80.27,-124.45 69.77,-115.03"/>
<polygon fill="black" stroke="black" points="71.84,-112.18 62.06,-108.1 67.16,-117.39 71.84,-112.18"/>
</g>
<!-- root_1_0 -->
<g id="node4" class="node">
<title>root_1_0</title>
<polygon fill="#fae8e8" stroke="#b55e5e" points="148,-108 94,-108 94,-72 148,-72 148,-108"/>
<text text-anchor="middle" x="121" y="-86.3" font-family="Times,serif" font-size="14.00" fill="#434343">do(C)?</text>
</g>
<!-- root_1&#45;&gt;root_1_0 -->
<g id="edge4" class="edge">
<title>root_1&#45;&gt;root_1_0</title>
<path fill="none" stroke="black" d="M121,-143.7C121,-135.98 121,-126.71 121,-118.11"/>
<polygon fill="black" stroke="black" points="124.5,-118.1 121,-108.1 117.5,-118.1 124.5,-118.1"/>
</g>
<!-- root_1_0_1 -->
<g id="node5" class="node">
<title>root_1_0_1</title>
<polygon fill="#e9f2fa" stroke="#5f92b6" points="70,-36 0,-36 0,0 70,0 70,-36"/>
<text text-anchor="middle" x="35" y="-14.3" font-family="Times,serif" font-size="14.00" fill="#434343">B = False</text>
</g>
<!-- root_1_0&#45;&gt;root_1_0_1 -->
<g id="edge1" class="edge">
<title>root_1_0&#45;&gt;root_1_0_1</title>
<path fill="none" stroke="black" d="M99.74,-71.7C88.91,-62.88 75.58,-52.03 63.84,-42.47"/>
<polygon fill="black" stroke="black" points="65.98,-39.7 56.01,-36.1 61.56,-45.13 65.98,-39.7"/>
</g>
<!-- root_1_0_0 -->
<g id="node6" class="node">
<title>root_1_0_0</title>
<polygon fill="#e9f2fa" stroke="#5f92b6" points="154,-36 88,-36 88,0 154,0 154,-36"/>
<text text-anchor="middle" x="121" y="-14.3" font-family="Times,serif" font-size="14.00" fill="#434343">B = True</text>
</g>
<!-- root_1_0&#45;&gt;root_1_0_0 -->
<g id="edge2" class="edge">
<title>root_1_0&#45;&gt;root_1_0_0</title>
<path fill="none" stroke="black" d="M121,-71.7C121,-63.98 121,-54.71 121,-46.11"/>
<polygon fill="black" stroke="black" points="124.5,-46.1 121,-36.1 117.5,-46.1 124.5,-46.1"/>
</g>
<!-- root_0_1 -->
<g id="node8" class="node">
<title>root_0_1</title>
<polygon fill="#e9f2fa" stroke="#5f92b6" points="232,-108 178,-108 178,-72 232,-72 232,-108"/>
<text text-anchor="middle" x="205" y="-86.3" font-family="Times,serif" font-size="14.00" fill="#434343">A?</text>
</g>
<!-- root_0&#45;&gt;root_0_1 -->
<g id="edge7" class="edge">
<title>root_0&#45;&gt;root_0_1</title>
<path fill="none" stroke="black" d="M205,-143.7C205,-135.98 205,-126.71 205,-118.11"/>
<polygon fill="black" stroke="black" points="208.5,-118.1 205,-108.1 201.5,-118.1 208.5,-118.1"/>
</g>
<!-- root_0_0 -->
<g id="node11" class="node">
<title>root_0_0</title>
<polygon fill="#e9f2fa" stroke="#5f92b6" points="320,-108 250,-108 250,-72 320,-72 320,-108"/>
<text text-anchor="middle" x="285" y="-86.3" font-family="Times,serif" font-size="14.00" fill="#434343">B = False</text>
</g>
<!-- root_0&#45;&gt;root_0_0 -->
<g id="edge8" class="edge">
<title>root_0&#45;&gt;root_0_0</title>
<path fill="none" stroke="black" d="M224.78,-143.7C234.75,-134.97 247.01,-124.24 257.86,-114.75"/>
<polygon fill="black" stroke="black" points="260.23,-117.32 265.45,-108.1 255.62,-112.06 260.23,-117.32"/>
</g>
<!-- root_0_1_1 -->
<g id="node9" class="node">
<title>root_0_1_1</title>
<polygon fill="#e9f2fa" stroke="#5f92b6" points="238,-36 172,-36 172,0 238,0 238,-36"/>
<text text-anchor="middle" x="205" y="-14.3" font-family="Times,serif" font-size="14.00" fill="#434343">B = True</text>
</g>
<!-- root_0_1&#45;&gt;root_0_1_1 -->
<g id="edge5" class="edge">
<title>root_0_1&#45;&gt;root_0_1_1</title>
<path fill="none" stroke="black" d="M205,-71.7C205,-63.98 205,-54.71 205,-46.11"/>
<polygon fill="black" stroke="black" points="208.5,-46.1 205,-36.1 201.5,-46.1 208.5,-46.1"/>
</g>
<!-- root_0_1_0 -->
<g id="node10" class="node">
<title>root_0_1_0</title>
<polygon fill="#e9f2fa" stroke="#5f92b6" points="326,-36 256,-36 256,0 326,0 326,-36"/>
<text text-anchor="middle" x="291" y="-14.3" font-family="Times,serif" font-size="14.00" fill="#434343">B = False</text>
</g>
<!-- root_0_1&#45;&gt;root_0_1_0 -->
<g id="edge6" class="edge">
<title>root_0_1&#45;&gt;root_0_1_0</title>
<path fill="none" stroke="black" d="M226.26,-71.7C237.09,-62.88 250.42,-52.03 262.16,-42.47"/>
<polygon fill="black" stroke="black" points="264.44,-45.13 269.99,-36.1 260.02,-39.7 264.44,-45.13"/>
</g>
</g>
</svg>
