<?xml version="1.0" encoding="UTF-8" standalone="no"?>
<!DOCTYPE svg PUBLIC "-//W3C//DTD SVG 1.1//EN"
 "http://www.w3.org/Graphics/SVG/1.1/DTD/svg11.dtd">
<!-- Generated by graphviz version 2.43.0 (0)
 -->
<!-- Title: %3 Pages: 1 -->
<svg width="162pt" height="116pt"
 viewBox="0.00 0.00 162.00 116.00" xmlns="http://www.w3.org/2000/svg" xmlns:xlink="http://www.w3.org/1999/xlink">
<g id="graph0" class="graph" transform="scale(1 1) rotate(0) translate(4 112)">
<title>%3</title>
<polygon fill="white" stroke="transparent" points="-4,4 -4,-112 158,-112 158,4 -4,4"/>
<!-- root -->
<g id="node1" class="node">
<title>root</title>
<polygon fill="#e9f2fa" stroke="#5f92b6" points="103,-108 49,-108 49,-72 103,-72 103,-108"/>
<text text-anchor="middle" x="76" y="-86.3" font-family="Times,serif" font-size="14.00" fill="#434343">C?</text>
</g>
<!-- root_2 -->
<g id="node2" class="node">
<title>root_2</title>
<polygon fill="#e9f2fa" stroke="#5f92b6" points="66,-36 0,-36 0,0 66,0 66,-36"/>
<text text-anchor="middle" x="33" y="-14.3" font-family="Times,serif" font-size="14.00" fill="#434343">B = True</text>
</g>
<!-- root&#45;&gt;root_2 -->
<g id="edge1" class="edge">
<title>root&#45;&gt;root_2</title>
<path fill="none" stroke="black" d="M65.37,-71.7C60.37,-63.56 54.31,-53.69 48.79,-44.7"/>
<polygon fill="black" stroke="black" points="51.72,-42.79 43.51,-36.1 45.76,-46.46 51.72,-42.79"/>
</g>
<!-- root_1 -->
<g id="node3" class="node">
<title>root_1</title>
<polygon fill="#e9f2fa" stroke="#5f92b6" points="154,-36 84,-36 84,0 154,0 154,-36"/>
<text text-anchor="middle" x="119" y="-14.3" font-family="Times,serif" font-size="14.00" fill="#434343">B = False</text>
</g>
<!-- root&#45;&gt;root_1 -->
<g id="edge2" class="edge">
<title>root&#45;&gt;root_1</title>
<path fill="none" stroke="black" d="M86.63,-71.7C91.63,-63.56 97.69,-53.69 103.21,-44.7"/>
<polygon fill="black" stroke="black" points="106.24,-46.46 108.49,-36.1 100.28,-42.79 106.24,-46.46"/>
</g>
</g>
</svg>
